<svg width="275" height="275" viewBox="0 0 275 275" fill="none" xmlns="http://www.w3.org/2000/svg">
<circle cx="137.5" cy="137.5" r="137.5" fill="#0038FF"/>
<path d="M28 127.77C28.0863 149.331 45.5406 167 66.9826 167C88.4774 167 105.964 149.402 105.964 127.77V122.232C105.964 113.324 113.165 106.077 122.016 106.077C130.868 106.077 138.068 113.324 138.068 122.232C138.068 124.78 140.122 126.847 142.655 126.847H156.414C158.948 126.847 161 124.78 161 122.232C161 100.6 143.513 83 122.017 83C100.523 83 83.0348 100.6 83.0348 122.232V127.77C83.0348 136.678 75.8334 143.923 66.9839 143.923C58.1331 143.923 50.9317 136.678 50.9317 127.77C50.9317 125.221 48.878 123.154 46.3454 123.154H32.5863C30.0537 123.155 28 125.221 28 127.77Z" fill="white"/>
<path d="M160.967 156.38C160.967 157.004 160.931 157.664 160.859 158.36H145.091C145.211 160.304 145.871 161.828 147.071 162.932C148.295 164.012 149.771 164.552 151.499 164.552C152.915 164.552 154.091 164.228 155.027 163.58C155.987 162.908 156.659 162.02 157.043 160.916H160.571C160.043 162.812 158.987 164.36 157.403 165.56C155.819 166.736 153.851 167.324 151.499 167.324C149.627 167.324 147.947 166.904 146.459 166.064C144.995 165.224 143.843 164.036 143.003 162.5C142.163 160.94 141.743 159.14 141.743 157.1C141.743 155.06 142.151 153.272 142.967 151.736C143.783 150.2 144.923 149.024 146.387 148.208C147.875 147.368 149.579 146.948 151.499 146.948C153.371 146.948 155.027 147.356 156.467 148.172C157.907 148.988 159.011 150.116 159.779 151.556C160.571 152.972 160.967 154.58 160.967 156.38ZM157.583 155.696C157.583 154.448 157.307 153.38 156.755 152.492C156.203 151.58 155.447 150.896 154.487 150.44C153.551 149.96 152.507 149.72 151.355 149.72C149.699 149.72 148.283 150.248 147.107 151.304C145.955 152.36 145.295 153.824 145.127 155.696H157.583ZM169.288 149.972V161.6C169.288 162.56 169.492 163.244 169.9 163.652C170.308 164.036 171.016 164.228 172.024 164.228H174.436V167H171.484C169.66 167 168.292 166.58 167.38 165.74C166.468 164.9 166.012 163.52 166.012 161.6V149.972H163.456V147.272H166.012V142.304H169.288V147.272H174.436V149.972H169.288ZM177.181 157.064C177.181 155.048 177.589 153.284 178.405 151.772C179.221 150.236 180.337 149.048 181.753 148.208C183.193 147.368 184.789 146.948 186.541 146.948C188.269 146.948 189.769 147.32 191.041 148.064C192.313 148.808 193.261 149.744 193.885 150.872V147.272H197.197V167H193.885V163.328C193.237 164.48 192.265 165.44 190.969 166.208C189.697 166.952 188.209 167.324 186.505 167.324C184.753 167.324 183.169 166.892 181.753 166.028C180.337 165.164 179.221 163.952 178.405 162.392C177.589 160.832 177.181 159.056 177.181 157.064ZM193.885 157.1C193.885 155.612 193.585 154.316 192.985 153.212C192.385 152.108 191.569 151.268 190.537 150.692C189.529 150.092 188.413 149.792 187.189 149.792C185.965 149.792 184.849 150.08 183.841 150.656C182.833 151.232 182.029 152.072 181.429 153.176C180.829 154.28 180.529 155.576 180.529 157.064C180.529 158.576 180.829 159.896 181.429 161.024C182.029 162.128 182.833 162.98 183.841 163.58C184.849 164.156 185.965 164.444 187.189 164.444C188.413 164.444 189.529 164.156 190.537 163.58C191.569 162.98 192.385 162.128 192.985 161.024C193.585 159.896 193.885 158.588 193.885 157.1ZM206.009 150.476C206.585 149.348 207.401 148.472 208.457 147.848C209.537 147.224 210.845 146.912 212.381 146.912V150.296H211.517C207.845 150.296 206.009 152.288 206.009 156.272V167H202.733V147.272H206.009V150.476ZM214.939 157.064C214.939 155.048 215.347 153.284 216.163 151.772C216.979 150.236 218.095 149.048 219.511 148.208C220.951 147.368 222.547 146.948 224.299 146.948C226.027 146.948 227.527 147.32 228.799 148.064C230.071 148.808 231.019 149.744 231.643 150.872V147.272H234.955V167H231.643V163.328C230.995 164.48 230.023 165.44 228.727 166.208C227.455 166.952 225.967 167.324 224.263 167.324C222.511 167.324 220.927 166.892 219.511 166.028C218.095 165.164 216.979 163.952 216.163 162.392C215.347 160.832 214.939 159.056 214.939 157.064ZM231.643 157.1C231.643 155.612 231.343 154.316 230.743 153.212C230.143 152.108 229.327 151.268 228.295 150.692C227.287 150.092 226.171 149.792 224.947 149.792C223.723 149.792 222.607 150.08 221.599 150.656C220.591 151.232 219.787 152.072 219.187 153.176C218.587 154.28 218.287 155.576 218.287 157.064C218.287 158.576 218.587 159.896 219.187 161.024C219.787 162.128 220.591 162.98 221.599 163.58C222.607 164.156 223.723 164.444 224.947 164.444C226.171 164.444 227.287 164.156 228.295 163.58C229.327 162.98 230.143 162.128 230.743 161.024C231.343 159.896 231.643 158.588 231.643 157.1ZM241.535 167.216C240.911 167.216 240.383 167 239.951 166.568C239.519 166.136 239.303 165.608 239.303 164.984C239.303 164.36 239.519 163.832 239.951 163.4C240.383 162.968 240.911 162.752 241.535 162.752C242.135 162.752 242.639 162.968 243.047 163.4C243.479 163.832 243.695 164.36 243.695 164.984C243.695 165.608 243.479 166.136 243.047 166.568C242.639 167 242.135 167.216 241.535 167.216Z" fill="white"/>
</svg>
