<svg width="597" height="257" viewBox="0 0 597 257" fill="none" xmlns="http://www.w3.org/2000/svg">
<path d="M0 124.716C0.240641 184.778 48.9291 234 108.741 234C168.7 234 217.478 184.976 217.478 124.716V109.288C217.478 84.4746 237.566 64.2855 262.255 64.2855C286.948 64.2855 307.033 84.4746 307.033 109.288C307.033 116.388 312.761 122.146 319.826 122.146H358.207C365.275 122.146 371 116.388 371 109.288C371 49.0272 322.222 0 262.259 0C202.3 0 153.518 49.0272 153.518 109.288V124.716C153.518 149.533 133.43 169.715 108.745 169.715C84.0555 169.715 63.9674 149.533 63.9674 124.716C63.9674 117.615 58.2387 111.858 51.1739 111.858H12.7935C5.72869 111.862 0 117.615 0 124.716Z" fill="white"/>
<path d="M366.58 190.68C366.58 192.344 366.484 194.104 366.292 195.96H324.244C324.564 201.144 326.324 205.208 329.524 208.152C332.788 211.032 336.724 212.472 341.332 212.472C345.108 212.472 348.244 211.608 350.74 209.88C353.3 208.088 355.092 205.72 356.116 202.776H365.524C364.116 207.832 361.3 211.96 357.076 215.16C352.852 218.296 347.604 219.864 341.332 219.864C336.34 219.864 331.86 218.744 327.892 216.504C323.988 214.264 320.916 211.096 318.676 207C316.436 202.84 315.316 198.04 315.316 192.6C315.316 187.16 316.404 182.392 318.58 178.296C320.756 174.2 323.796 171.064 327.7 168.888C331.668 166.648 336.212 165.528 341.332 165.528C346.324 165.528 350.74 166.616 354.58 168.792C358.42 170.968 361.364 173.976 363.412 177.816C365.524 181.592 366.58 185.88 366.58 190.68ZM357.556 188.856C357.556 185.528 356.82 182.68 355.348 180.312C353.876 177.88 351.86 176.056 349.3 174.84C346.804 173.56 344.02 172.92 340.948 172.92C336.532 172.92 332.756 174.328 329.62 177.144C326.548 179.96 324.788 183.864 324.34 188.856H357.556ZM388.767 173.592V204.6C388.767 207.16 389.311 208.984 390.399 210.072C391.487 211.096 393.375 211.608 396.063 211.608H402.495V219H394.623C389.759 219 386.111 217.88 383.679 215.64C381.247 213.4 380.031 209.72 380.031 204.6V173.592H373.215V166.392H380.031V153.144H388.767V166.392H402.495V173.592H388.767ZM409.816 192.504C409.816 187.128 410.904 182.424 413.08 178.392C415.256 174.296 418.232 171.128 422.008 168.888C425.848 166.648 430.104 165.528 434.776 165.528C439.384 165.528 443.384 166.52 446.776 168.504C450.168 170.488 452.696 172.984 454.36 175.992V166.392H463.192V219H454.36V209.208C452.632 212.28 450.04 214.84 446.584 216.888C443.192 218.872 439.224 219.864 434.68 219.864C430.008 219.864 425.784 218.712 422.008 216.408C418.232 214.104 415.256 210.872 413.08 206.712C410.904 202.552 409.816 197.816 409.816 192.504ZM454.36 192.6C454.36 188.632 453.56 185.176 451.96 182.232C450.36 179.288 448.184 177.048 445.432 175.512C442.744 173.912 439.768 173.112 436.504 173.112C433.24 173.112 430.264 173.88 427.576 175.416C424.888 176.952 422.744 179.192 421.144 182.136C419.544 185.08 418.744 188.536 418.744 192.504C418.744 196.536 419.544 200.056 421.144 203.064C422.744 206.008 424.888 208.28 427.576 209.88C430.264 211.416 433.24 212.184 436.504 212.184C439.768 212.184 442.744 211.416 445.432 209.88C448.184 208.28 450.36 206.008 451.96 203.064C453.56 200.056 454.36 196.568 454.36 192.6ZM486.691 174.936C488.227 171.928 490.403 169.592 493.219 167.928C496.099 166.264 499.587 165.432 503.683 165.432V174.456H501.379C491.587 174.456 486.691 179.768 486.691 190.392V219H477.955V166.392H486.691V174.936ZM510.503 192.504C510.503 187.128 511.591 182.424 513.767 178.392C515.943 174.296 518.919 171.128 522.695 168.888C526.535 166.648 530.791 165.528 535.463 165.528C540.071 165.528 544.071 166.52 547.463 168.504C550.855 170.488 553.383 172.984 555.047 175.992V166.392H563.879V219H555.047V209.208C553.319 212.28 550.727 214.84 547.271 216.888C543.879 218.872 539.911 219.864 535.367 219.864C530.695 219.864 526.471 218.712 522.695 216.408C518.919 214.104 515.943 210.872 513.767 206.712C511.591 202.552 510.503 197.816 510.503 192.504ZM555.047 192.6C555.047 188.632 554.247 185.176 552.647 182.232C551.047 179.288 548.871 177.048 546.119 175.512C543.431 173.912 540.455 173.112 537.191 173.112C533.927 173.112 530.951 173.88 528.263 175.416C525.575 176.952 523.431 179.192 521.831 182.136C520.231 185.08 519.431 188.536 519.431 192.504C519.431 196.536 520.231 200.056 521.831 203.064C523.431 206.008 525.575 208.28 528.263 209.88C530.951 211.416 533.927 212.184 537.191 212.184C540.455 212.184 543.431 211.416 546.119 209.88C548.871 208.28 551.047 206.008 552.647 203.064C554.247 200.056 555.047 196.568 555.047 192.6ZM581.426 219.576C579.762 219.576 578.354 219 577.202 217.848C576.05 216.696 575.474 215.288 575.474 213.624C575.474 211.96 576.05 210.552 577.202 209.4C578.354 208.248 579.762 207.672 581.426 207.672C583.026 207.672 584.37 208.248 585.458 209.4C586.61 210.552 587.186 211.96 587.186 213.624C587.186 215.288 586.61 216.696 585.458 217.848C584.37 219 583.026 219.576 581.426 219.576Z" fill="white"/>
</svg>
